<?xml version="1.0" standalone="no"?>
<!DOCTYPE svg PUBLIC "-//W3C//DTD SVG 20010904//EN"
 "http://www.w3.org/TR/2001/REC-SVG-20010904/DTD/svg10.dtd">
<svg version="1.0" xmlns="http://www.w3.org/2000/svg"
 width="512.000000pt" height="512.000000pt" viewBox="0 0 512.000000 512.000000"
 preserveAspectRatio="xMidYMid meet">
<metadata>
Created by potrace 1.14, written by Peter Selinger 2001-2017
</metadata>
<g transform="translate(0.000000,512.000000) scale(0.100000,-0.100000)"
fill="#000000" stroke="none">
<path d="M2379 5116 c-2 -2 -40 -6 -83 -10 -44 -4 -82 -8 -85 -10 -3 -2 -31
-7 -61 -11 -30 -3 -75 -11 -100 -17 -25 -5 -56 -12 -70 -14 -14 -3 -72 -18
-129 -35 -436 -125 -803 -347 -1136 -686 -45 -46 -86 -83 -91 -83 -6 0 -49
-39 -97 -86 l-86 -86 -33 21 c-113 71 -189 85 -265 51 -73 -33 -92 -86 -48
-138 52 -62 178 -83 256 -43 21 11 39 19 39 16 0 -29 -37 -127 -68 -182 -123
-217 -222 -487 -271 -738 -40 -200 -46 -267 -45 -515 0 -183 3 -241 19 -345 3
-16 7 -43 9 -60 8 -58 38 -191 61 -275 159 -569 502 -1058 980 -1397 173 -122
298 -190 550 -298 129 -55 384 -122 575 -151 124 -19 504 -26 635 -11 894 98
1671 657 2052 1477 91 195 181 503 208 710 27 212 27 561 1 715 -3 17 -8 44
-10 60 -3 17 -9 53 -15 80 -6 28 -13 61 -15 75 -31 156 -115 389 -206 572
-335 671 -954 1167 -1680 1344 -58 14 -116 28 -130 30 -70 11 -85 14 -195 30
-44 6 -460 15 -466 10z"/>
</g>
</svg>
